<?xml version="1.0" encoding="UTF-8" standalone="no"?>
<!-- Created with Inkscape (http://www.inkscape.org/) -->

<svg
   width="1280"
   height="720"
   viewBox="0 0 338.66665 190.5"
   version="1.1"
   id="svg1"
   inkscape:version="1.3.1 (91b66b0783, 2023-11-16)"
   sodipodi:docname="proto.svg"
   xmlns:inkscape="http://www.inkscape.org/namespaces/inkscape"
   xmlns:sodipodi="http://sodipodi.sourceforge.net/DTD/sodipodi-0.dtd"
   xmlns="http://www.w3.org/2000/svg"
   xmlns:svg="http://www.w3.org/2000/svg">
  <sodipodi:namedview
     id="namedview1"
     pagecolor="#505050"
     bordercolor="#eeeeee"
     borderopacity="1"
     inkscape:showpageshadow="0"
     inkscape:pageopacity="0"
     inkscape:pagecheckerboard="0"
     inkscape:deskcolor="#d1d1d1"
     inkscape:document-units="px"
     inkscape:zoom="2.0669867"
     inkscape:cx="610.30872"
     inkscape:cy="379.538"
     inkscape:window-width="1022"
     inkscape:window-height="1018"
     inkscape:window-x="-7"
     inkscape:window-y="0"
     inkscape:window-maximized="0"
     inkscape:current-layer="layer1" />
  <defs
     id="defs1" />
  <g
     inkscape:label="Layer 1"
     inkscape:groupmode="layer"
     id="layer1"
     style="display:inline">
    <g
       id="g9"
       transform="matrix(0.23096962,0,0,0.23096962,17.90216,22.779429)"
       style="stroke:#ffccaa"
       inkscape:label="g9">
      <g
         id="g6"
         transform="translate(-32.259097,-5.9472152)"
         style="stroke:#ffccaa">
        <circle
           style="fill:#d45500;stroke:#ffccaa;stroke-width:0.264583;stroke-opacity:0.5"
           id="path1"
           cx="172.64926"
           cy="78.755463"
           r="40.008495" />
        <ellipse
           style="fill:#a05a2c;stroke:#ffccaa;stroke-width:0.183159;stroke-opacity:0.5"
           id="path3"
           cx="172.64926"
           cy="109.03217"
           rx="36.264618"
           ry="17.161465" />
      </g>
      <g
         id="g5"
         transform="translate(-1.8021844,-1.4417526)"
         style="stroke:#ffccaa"
         inkscape:label="g5"
         sodipodi:insensitive="true">
        <circle
           style="fill:#ffccaa;stroke:#ffccaa;stroke-width:0.264583;stroke-opacity:0.5"
           id="circle3"
           cx="62.175358"
           cy="74.25"
           r="40.008495" />
        <ellipse
           style="fill:#deaa87;stroke:#ffccaa;stroke-width:0.183159;stroke-opacity:0.5"
           id="ellipse4"
           cx="62.175358"
           cy="104.52671"
           rx="36.264618"
           ry="17.161465" />
      </g>
      <g
         id="g8"
         style="stroke:#ffccaa"
         inkscape:label="g8">
        <circle
           style="fill:#28170b;fill-opacity:1;stroke:#ffccaa;stroke-width:0.264583;stroke-opacity:0.5"
           id="circle8"
           cx="220.40715"
           cy="72.80825"
           r="40.008495" />
        <ellipse
           style="fill:#483737;fill-opacity:1;stroke:#ffccaa;stroke-width:0.183159;stroke-opacity:0.5"
           id="ellipse8"
           cx="220.40715"
           cy="103.08496"
           rx="36.264618"
           ry="17.161465" />
      </g>
    </g>
    <g
       id="g11"
       transform="translate(-90.693782,-6.697944)">
      <g
         id="g7"
         transform="matrix(0.75792195,0,0,0.75792195,22.832872,41.642908)"
         style="stroke:none">
        <path
           style="fill:#280b0b;stroke:none;stroke-width:0.34909;stroke-linecap:butt;stroke-linejoin:miter;stroke-dasharray:none;stroke-opacity:1"
           d="m 142.94336,124.47657 c 0,0 -5.6411,4.50203 -6.94874,8.2141 -2.81911,8.00274 -0.56957,26.43446 -0.56957,26.43446 0,0 7.90588,-13.56101 8.99919,-21.65536 0.58243,-4.31206 -1.48088,-12.9932 -1.48088,-12.9932 z"
           id="path7"
           sodipodi:nodetypes="cacac" />
        <path
           style="fill:#280b0b;stroke:none;stroke-width:0.34909;stroke-linecap:butt;stroke-linejoin:miter;stroke-dasharray:none;stroke-opacity:1"
           d="m 152.0486,91.632932 c 0,0 -8.36492,5.091978 -10.30395,9.290458 -4.18033,9.05139 -0.8446,29.89836 -0.8446,29.89836 0,0 11.72327,-15.33801 13.34447,-24.49302 0.86367,-4.8771 -2.19592,-14.695798 -2.19592,-14.695798 z"
           id="path2"
           sodipodi:nodetypes="cacac" />
        <path
           style="fill:#280b0b;stroke:none;stroke-width:0.34909;stroke-linecap:butt;stroke-linejoin:miter;stroke-dasharray:none;stroke-opacity:1"
           d="m 166.53065,130.82175 c 0,0 2.53874,-8.03156 5.1704,-11.18525 3.1065,-3.72272 11.89759,-8.36825 11.89759,-8.36825 0,0 -1.92419,9.24041 -4.8805,12.66536 -3.04914,3.53249 -12.18749,6.88814 -12.18749,6.88814 z"
           id="path6"
           sodipodi:nodetypes="cacac" />
        <path
           style="fill:#280b0b;stroke:none;stroke-width:0.34909;stroke-linecap:butt;stroke-linejoin:miter;stroke-dasharray:none;stroke-opacity:1"
           d="m 156.44045,91.632931 c 0,0 8.36491,5.091979 10.30395,9.290449 4.18032,9.0514 0.84459,29.89837 0.84459,29.89837 0,0 -11.72326,-15.33801 -13.34447,-24.49302 -0.86366,-4.87711 2.19593,-14.695799 2.19593,-14.695799 z"
           id="path4"
           sodipodi:nodetypes="cacac" />
        <path
           style="fill:#280b0b;stroke:none;stroke-width:0.34909;stroke-linecap:butt;stroke-linejoin:miter;stroke-dasharray:none;stroke-opacity:1"
           d="m 152.96852,87.640603 c 0,0 9.98112,3.42328 9.96612,7.601277 -0.0152,4.22579 -10.13504,7.61568 -10.13504,7.61568 0,0 -8.34622,-4.56147 -8.10803,-8.46027 0.21719,-3.554901 8.27695,-6.756687 8.27695,-6.756687 z"
           id="path5"
           sodipodi:nodetypes="cacac" />
      </g>
      <path
         style="fill:#280b0b;fill-opacity:1;stroke:none;stroke-width:0.264583;stroke-linecap:butt;stroke-linejoin:miter;stroke-dasharray:none;stroke-opacity:1"
         d="m 139.62174,96.667626 c 0,0 -6.54097,2.929851 -7.12774,5.973844 -0.76471,3.96708 5.72968,10.6805 5.72968,10.6805 0,0 8.27109,-5.54687 8.10094,-9.77538 -0.12871,-3.19895 -6.70288,-6.878964 -6.70288,-6.878964 z"
         id="path8"
         sodipodi:nodetypes="cacac" />
      <path
         style="fill:#280b0b;fill-opacity:1;stroke:none;stroke-width:0.264583;stroke-linecap:butt;stroke-linejoin:miter;stroke-dasharray:none;stroke-opacity:1"
         d="m 139.62174,85.806095 c 0,0 -6.54097,2.929851 -7.12774,5.973844 -0.76471,3.96708 5.72968,10.680501 5.72968,10.680501 0,0 8.27109,-5.546871 8.10094,-9.775381 -0.12871,-3.19895 -6.70288,-6.878964 -6.70288,-6.878964 z"
         id="path9"
         sodipodi:nodetypes="cacac" />
      <path
         style="fill:#280b0b;fill-opacity:1;stroke:none;stroke-width:0.264583;stroke-linecap:butt;stroke-linejoin:miter;stroke-dasharray:none;stroke-opacity:1"
         d="m 131.0233,86.995323 c 0,0 5.01504,-5.373201 8.32256,-5.403727 3.29517,-0.03041 8.38946,5.229619 8.38946,5.229619 0,0 -5.39662,3.175917 -8.38946,3.19938 -2.9517,0.02314 -8.32256,-3.025272 -8.32256,-3.025272 z"
         id="path10"
         sodipodi:nodetypes="cacac" />
    </g>
    <path
       style="fill:#2b0000;stroke:none;stroke-width:0.264583px;stroke-linecap:butt;stroke-linejoin:miter;stroke-opacity:1"
       d="m 181.02552,79.567945 c -9.51471,-0.276362 -23.0637,8.634265 -22.08511,18.102544 0.97948,9.476851 15.8345,13.804371 25.34357,13.214871 7.10006,-0.44016 17.06112,-5.0325 17.55947,-12.128711 0.66114,-9.414284 -11.38444,-18.914701 -20.81793,-19.188704 z"
       id="path15"
       sodipodi:nodetypes="aaaaa" />
    <path
       style="fill:#2b0000;stroke:none;stroke-width:0.264583px;stroke-linecap:butt;stroke-linejoin:miter;stroke-opacity:1"
       d="m 180.37988,95.249998 c 0,0 -16.6098,29.318992 -14.37948,44.863752 0.99356,6.92484 4.78392,16.95197 11.76666,17.37845 6.87278,0.41976 11.91861,-8.88529 13.57691,-15.5682 3.84894,-15.51109 -10.96409,-46.674002 -10.96409,-46.674002 z"
       id="path16"
       sodipodi:nodetypes="caaac" />
    <path
       style="fill:#2b0000;stroke:none;stroke-width:0.264583px;stroke-linecap:butt;stroke-linejoin:miter;stroke-opacity:1"
       d="m 151.35862,103.60324 c 3.10799,-7.873045 24.50148,-6.669177 24.50148,-6.669177 0,0 -12.09373,15.543187 -20.05019,13.879647 -2.7648,-0.57807 -5.48846,-4.58319 -4.45129,-7.21047 z"
       id="path17"
       sodipodi:nodetypes="acaa" />
    <path
       style="fill:#2b0000;stroke:none;stroke-width:0.264583px;stroke-linecap:butt;stroke-linejoin:miter;stroke-opacity:1"
       d="m 181.35409,77.245742 c 0,0 10.86892,5.914242 12.38534,2.016022 2.4713,-6.352866 -10.30096,-11.727198 -17.09851,-11.217717 -4.34002,0.325292 -11.21182,4.618288 -9.72728,8.709475 1.64283,4.527428 14.44045,0.49222 14.44045,0.49222 z"
       id="path18"
       sodipodi:nodetypes="caaac" />
    <path
       style="fill:#2b0000;stroke:none;stroke-width:0.264583px;stroke-linecap:butt;stroke-linejoin:miter;stroke-opacity:1"
       d="m 199.0147,111.62637 c -3.27089,-1.67193 -8.47612,-0.13041 -10.65064,2.83026 -3.21656,4.37947 0.71855,16.28551 0.71855,16.28551 0,0 12.3666,-2.83522 14.21633,-7.93769 1.35996,-3.75143 -0.73118,-9.36192 -4.28424,-11.17808 z"
       id="path19"
       sodipodi:nodetypes="aacaa" />
  </g>
  <g
     inkscape:groupmode="layer"
     id="layer2"
     inkscape:label="Layer 2"
     sodipodi:insensitive="true"
     style="display:inline">
    <rect
       style="display:inline;fill:none;fill-opacity:1;stroke:#333333;stroke-width:13.2292;stroke-linecap:round;stroke-dasharray:none;stroke-opacity:1"
       id="rect10"
       width="166.88228"
       height="122.81641"
       x="86.324631"
       y="46.588924"
       inkscape:label="Frame Rectangle" />
  </g>
</svg>
